<?xml version="1.0" standalone="no"?>
<!DOCTYPE svg PUBLIC "-//W3C//DTD SVG 20010904//EN"
 "http://www.w3.org/TR/2001/REC-SVG-20010904/DTD/svg10.dtd">
<svg version="1.0" xmlns="http://www.w3.org/2000/svg"
 width="224.000000pt" height="224.000000pt" viewBox="0 0 224.000000 224.000000"
 preserveAspectRatio="xMidYMid meet">

<g transform="translate(0.000000,224.000000) scale(0.100000,-0.100000)"
fill="#000000" stroke="none">
<path d="M568 2029 c-24 -13 -23 -31 3 -60 l20 -24 -25 -21 c-18 -16 -24 -31
-24 -55 1 -18 -3 -34 -8 -36 -34 -12 -59 -31 -63 -48 -2 -11 -16 -35 -32 -53
-33 -37 -35 -56 -14 -109 8 -21 28 -90 45 -153 63 -235 182 -428 333 -544 131
-100 241 -139 447 -158 123 -11 294 -2 390 22 19 5 68 14 108 21 70 12 84 19
88 46 3 20 -4 21 -135 27 -68 3 -126 7 -129 10 -3 3 2 14 11 24 47 51 -11 57
-63 7 l-36 -35 -73 20 c-133 37 -233 101 -323 208 -72 84 -101 137 -127 232
-22 77 -48 347 -37 376 5 12 14 15 39 10 78 -16 97 -18 97 -8 0 17 -24 37 -71
56 -96 41 -153 70 -170 87 -11 11 -28 19 -38 19 -32 0 -52 12 -62 36 -7 20
-16 24 -50 24 -41 0 -41 1 -36 30 5 23 2 33 -16 45 -25 18 -26 18 -49 4z m40
-17 c2 -7 -6 -12 -17 -12 -21 0 -27 11 -14 24 9 9 26 2 31 -12z m87 -130 c9
-6 11 -15 6 -39 -1 -9 -41 28 -41 39 0 10 21 10 35 0z m61 -58 c-3 -9 -6 -20
-6 -25 0 -14 -30 -11 -36 4 -3 8 -17 12 -37 10 l-32 -3 35 14 c49 20 84 20 76
0z m179 -49 c0 -29 -56 -53 -156 -67 -46 -6 -100 -19 -119 -29 -20 -9 -53 -17
-73 -16 -22 1 -42 -5 -46 -12 -14 -21 -54 5 -46 30 4 10 2 19 -2 19 -15 0 -33
-23 -33 -43 0 -10 -4 -15 -10 -12 -15 9 -12 31 6 49 17 18 64 22 64 6 0 -12
41 -30 52 -23 4 2 3 15 -2 28 -10 26 -9 26 55 40 17 3 38 8 49 12 11 3 16 1
12 -5 -4 -7 6 -9 31 -5 50 8 54 13 12 14 l-34 1 40 13 c55 18 85 18 85 0 0 -8
7 -15 16 -15 11 0 14 6 9 21 -6 19 -3 20 42 17 40 -3 48 -6 48 -23z m-25 -111
c0 -12 -4 -26 -10 -29 -5 -3 -10 -1 -10 4 0 21 -18 10 -24 -14 -8 -33 1 -50
20 -34 17 14 21 5 27 -69 3 -39 1 -55 -9 -59 -19 -7 -18 -23 1 -23 11 0 14 -7
10 -27 -3 -16 -2 -21 1 -13 9 18 55 -137 47 -157 -4 -9 12 -31 38 -57 56 -54
104 -115 114 -144 7 -25 88 -82 114 -82 9 0 29 -11 45 -25 17 -14 41 -28 55
-32 13 -3 36 -12 50 -19 14 -8 34 -14 44 -14 9 0 17 -4 17 -10 0 -16 -26 -12
-106 16 -71 24 -113 27 -155 9 -10 -4 -19 0 -22 9 -4 9 -17 16 -30 16 -16 0
-23 6 -24 22 -1 13 -7 24 -13 26 -5 2 -8 7 -5 12 7 12 -60 68 -111 93 -35 16
-43 25 -38 40 6 20 -21 57 -41 57 -19 0 -38 27 -25 35 16 10 12 40 -7 58 -20
17 -19 17 -67 17 -27 0 -36 5 -42 23 -3 12 -13 30 -22 40 -14 15 -13 17 1 17
18 0 23 25 7 35 -5 3 -10 12 -10 18 0 7 9 1 20 -13 17 -23 20 -24 35 -9 15 14
14 18 -3 39 -20 25 -52 36 -52 17 0 -13 -30 -47 -42 -47 -13 0 -9 28 5 33 6 3
2 6 -10 6 -28 1 -29 15 -3 43 10 12 17 24 15 29 -3 4 5 5 17 1 14 -3 19 -2 14
6 -4 7 -2 12 3 12 16 0 13 36 -4 50 -12 10 -15 10 -15 -2 0 -8 5 -19 11 -25 7
-7 3 -9 -15 -6 -20 4 -26 1 -26 -13 0 -9 -3 -14 -7 -11 -3 4 -12 -2 -20 -13
-15 -22 -30 -25 -52 -11 -17 11 -3 38 30 55 24 12 27 26 14 59 -6 13 -2 17 15
17 12 0 41 12 65 26 29 16 52 23 65 19 15 -5 18 -3 14 8 -3 10 7 17 38 24 49
11 68 2 68 -33z m-280 -68 c0 -3 -4 -8 -10 -11 -5 -3 -10 -1 -10 4 0 6 5 11
10 11 6 0 10 -2 10 -4z m5 -164 c0 -20 5 -27 18 -26 20 2 23 -12 5 -19 -10 -3
-8 -9 5 -24 19 -22 22 -33 7 -33 -6 0 -15 10 -20 23 -6 12 -19 37 -30 56 -16
26 -18 36 -9 47 15 18 24 9 24 -24z m-104 -9 c1 -12 7 -35 18 -70 5 -18 8 -33
5 -33 -6 0 -44 88 -44 101 0 11 20 12 21 2z m211 -146 c27 -33 22 -38 -19 -20
-47 21 -63 33 -63 45 0 17 64 -3 82 -25z m41 -82 c-1 -10 8 -32 19 -48 11 -15
18 -30 16 -33 -11 -10 -40 11 -63 44 -19 27 -22 39 -13 49 16 19 43 11 41 -12z
m-138 -40 c21 -31 36 -58 33 -60 -5 -5 -78 99 -78 110 0 12 9 2 45 -50z m100
-127 c29 -29 64 -61 77 -70 18 -13 19 -17 6 -18 -18 0 -122 91 -139 121 -16
31 -1 22 56 -33z m101 32 c18 -7 24 -14 17 -21 -11 -11 -73 7 -73 22 0 12 22
11 56 -1z m181 -86 c-9 -9 -28 6 -21 18 4 6 10 6 17 -1 6 -6 8 -13 4 -17z
m253 -109 c0 -8 -7 -15 -15 -15 -16 0 -20 12 -8 23 11 12 23 8 23 -8z m305 -5
c15 -6 6 -9 -32 -9 -28 -1 -55 4 -58 9 -8 12 61 12 90 0z m-526 -31 c28 -12
50 -24 47 -26 -7 -7 -116 30 -116 39 0 12 13 10 69 -13z m254 -46 c-13 -2 -33
-2 -45 0 -13 2 -3 4 22 4 25 0 35 -2 23 -4z m75 0 c-10 -2 -26 -2 -35 0 -10 3
-2 5 17 5 19 0 27 -2 18 -5z"/>
<path d="M640 1720 c0 -5 4 -10 9 -10 6 0 13 5 16 10 3 6 -1 10 -9 10 -9 0
-16 -4 -16 -10z"/>
<path d="M616 1711 c-4 -6 3 -15 14 -21 23 -12 27 2 6 19 -9 8 -16 8 -20 2z"/>
<path d="M840 1437 c0 -26 24 -65 32 -51 7 13 -11 74 -22 74 -6 0 -10 -10 -10
-23z"/>
<path d="M940 1270 c0 -5 5 -10 11 -10 5 0 7 5 4 10 -3 6 -8 10 -11 10 -2 0
-4 -4 -4 -10z"/>
<path d="M1050 1079 c7 -11 14 -18 17 -15 8 8 -5 36 -17 36 -7 0 -7 -6 0 -21z"/>
<path d="M1555 657 c-22 -12 -42 -24 -45 -26 -3 -2 5 -10 18 -18 21 -15 22
-20 22 -195 0 -150 -2 -180 -15 -184 -8 -4 -15 -13 -15 -21 0 -12 8 -14 38 -9
20 3 52 6 70 6 38 0 43 15 7 24 -21 5 -25 12 -25 42 0 45 27 58 49 23 9 -13
31 -41 50 -62 30 -34 39 -38 78 -36 50 3 57 22 14 37 -34 12 -113 107 -109
131 3 15 67 52 111 65 38 12 3 26 -62 26 -75 0 -89 -6 -63 -27 16 -12 14 -16
-23 -49 l-40 -35 -3 158 c-1 86 -6 161 -10 164 -4 4 -25 -2 -47 -14z"/>
<path d="M796 648 l-40 -20 25 -19 c23 -17 24 -22 27 -180 3 -150 2 -164 -17
-189 -11 -15 -18 -29 -16 -31 7 -8 145 3 145 12 0 5 -6 9 -14 9 -8 0 -22 7
-30 16 -14 13 -16 47 -16 220 0 157 -3 204 -12 204 -7 -1 -31 -10 -52 -22z"/>
<path d="M410 631 c0 -6 10 -17 23 -26 21 -15 22 -20 22 -186 0 -170 0 -170
-25 -189 l-25 -20 88 0 c85 0 115 12 58 23 -35 7 -38 14 -33 105 l4 73 41 -3
c34 -2 44 -8 55 -31 20 -41 32 -23 32 49 0 68 -9 80 -28 38 -11 -22 -17 -25
-60 -22 -26 2 -46 6 -44 11 1 4 2 39 2 77 l0 70 64 0 c59 0 66 -2 84 -27 24
-33 28 -31 35 25 l5 42 -149 0 c-87 0 -149 -4 -149 -9z"/>
<path d="M1060 463 c-63 -24 -81 -37 -78 -56 5 -31 25 -31 54 0 39 41 74 28
74 -29 0 -23 -6 -27 -50 -38 -66 -16 -100 -43 -100 -80 0 -50 58 -74 115 -48
19 8 31 8 51 -1 20 -9 31 -8 52 1 36 18 40 38 8 38 l-26 0 0 94 c0 66 -4 97
-13 105 -17 14 -67 22 -87 14z m50 -178 c0 -28 -4 -36 -24 -41 -40 -10 -61 -1
-61 26 0 25 33 50 68 50 13 0 17 -8 17 -35z"/>
<path d="M1320 457 c-23 -8 -38 -21 -44 -40 -14 -40 8 -74 69 -106 39 -21 50
-32 50 -51 0 -37 -52 -40 -93 -6 -38 33 -42 33 -42 -4 0 -36 27 -50 93 -50 48
0 84 21 97 56 15 38 -7 69 -71 104 -62 33 -74 55 -36 69 24 9 57 -3 70 -25 4
-8 15 -14 24 -14 12 0 14 6 8 28 -3 15 -10 31 -14 35 -14 14 -76 17 -111 4z"/>
</g>
</svg>
